#N canvas 706 28 631 773 12;
#X obj 24 641 fluid.mlpregressor mynetwork -hiddenlayers 3 -activation 1 -outputactivation 1 -learnrate 0.1 -batchsize 2 -validation 0, f 29;
#X obj 26 362 fluid.dataset inputdataset;
#N canvas 0 22 450 278 (subpatch) 0;
#X array inputvalues 2 float 3;
#A 0 0.615385 0.282051;
#X coords 0 1 2 0 100 100 1 0 0;
#X restore 21 140 graph;
#N canvas 0 22 450 278 (subpatch) 0;
#X array outputValues 8 float 3;
#A 0 0.864286 0.807143 0.692859 0.59286 0.421429 0.300002 0.250002 0.157146;
#X coords 0 1 8 0 200 140 1 0 0;
#X restore 319 110 graph;
#X obj 315 366 fluid.dataset outputdataset;
#X obj 62 41 hsl 40 19 0 1 0 0 empty empty empty -2 -10 0 12 #fcfcfc #000000 #000000 0 1;
#X obj 20 17 vsl 19 40 0 1 0 0 empty empty empty 0 -9 0 12 #fcfcfc #000000 #000000 0 1;
#X text 59 16 input control;
#X msg 20 73 \$1 0;
#X msg 58 73 \$1 1;
#X obj 20 99 tabwrite inputvalues;
#X msg 42 335 clear;
#X msg 334 336 clear;
#X obj 26 389 print;
#X obj 315 391 print;
#X obj 26 411 bng 15 250 50 0 empty empty empty 17 7 0 10 #fcfcfc #000000 #000000;
#X obj 311 428 bng 15 250 50 0 empty empty empty 17 7 0 10 #fcfcfc #000000 #000000;
#X obj 311 453 fluid.ds2text outputdataset outputdataset.text, f 27;
#X obj 26 448 fluid.ds2text inputdataset inputdataset.text, f 27;
#X obj 25 492 text define inputdataset.text;
#X obj 310 494 text define outputdataset.text;
#X msg 26 305 addpoint ins-\$1 inputvalues;
#X floatatom 26 282 5 0 0 0 - - - 0;
#X text 70 280 index in dataset;
#X floatatom 316 288 5 0 0 0 - - - 0;
#X text 360 286 index in dataset;
#X msg 316 312 addpoint outs-\$1 outputValues;
#X text 52 420 save to text;
#X text 339 424 save to text;
#X msg 25 536 clear;
#X msg 31 562 fit inputdataset outputdataset;
#X floatatom 24 744 5 0 0 0 - - - 0;
#N canvas 0 22 450 278 (subpatch) 0;
#X array predictedOutput 8 float 3;
#A 0 0.645845 0.59971 0.521943 0.468779 0.369257 0.305583 0.29068 0.231486;
#X coords 0 1 8 0 200 140 1 0 0;
#X restore 330 622 graph;
#X msg 35 611 predictpoint inputvalues predictedOutput;
#X obj 174 103 pack f f;
#X obj 24 721 route fit predictpoint;
#X obj 174 78 t b f;
#X obj 175 155 spigot;
#X obj 214 131 tgl 19 0 empty empty empty 0 -10 0 12 #fcfcfc #000000 #000000 0 1;
#X obj 175 182 s predict;
#X obj 35 586 r predict;
#X text 235 124 on/off;
#X text 236 140 predict;
#X obj 192 722 print;
#X msg 474 572 write simple.json;
#X msg 474 550 read simple.json;
#X msg 174 130 bang;
#X text 226 524 PREDICTION;
#X text 230 6 1) put 2 input values in array;
#X text 125 173 1);
#X text 230 27 2) put 8 values to the output;
#X text 291 175 2);
#X text 223 284 < - 3) - >;
#X text 230 45 3) add index to input and output (increase number);
#X text 199 256 TRAINING DATASETS;
#X text 76 534 4) clear;
#X text 257 561 5) fit many times;
#X text 229 65 4) fit the model;
#X text 377 65 5) run predictions;
#X text 241 104 5);
#X text 70 2 5);
#X connect 0 0 35 0;
#X connect 1 0 13 0;
#X connect 4 0 14 0;
#X connect 5 0 9 0;
#X connect 5 0 36 0;
#X connect 6 0 8 0;
#X connect 6 0 34 0;
#X connect 8 0 10 0;
#X connect 9 0 10 0;
#X connect 11 0 1 0;
#X connect 12 0 4 0;
#X connect 15 0 18 0;
#X connect 16 0 17 0;
#X connect 21 0 1 0;
#X connect 22 0 21 0;
#X connect 24 0 26 0;
#X connect 26 0 4 0;
#X connect 29 0 0 0;
#X connect 30 0 0 0;
#X connect 33 0 0 0;
#X connect 34 0 46 0;
#X connect 35 0 31 0;
#X connect 36 0 34 0;
#X connect 36 1 34 1;
#X connect 37 0 39 0;
#X connect 38 0 37 1;
#X connect 40 0 33 0;
#X connect 44 0 0 0;
#X connect 45 0 0 0;
#X connect 46 0 37 0;
