#N canvas 310 74 925 681 10;
#X msg 168 111 close;
#X msg 38 12 devices;
#X msg 77 84 open \$1;
#X obj 46 184 s;
#X obj 38 159 serial_print any;
#X obj 38 137 comport 0 9600;
#X msg 78 63 3;
#X obj 700 447 r amp;
#X obj 701 491 tgl 16 0 empty empty empty 0 -8 0 10 #fcfcfc #000000 #000000 0 1;
#X obj 701 513 change;
#X floatatom 717 539 5 0 0 0 - - - 0;
#X obj 701 562 s trig;
#X obj 473 204 r pitch;
#X obj 463 589 dac~;
#X obj 700 470 > 0.1;
#N canvas 0 50 450 278 (subpatch) 0;
#X array squarewave 2051 float 2;
#X coords 0 1 2051 -1 200 140 1;
#X restore 685 104 graph;
#X msg 444 83 bang;
#X floatatom 474 334 5 0 0 0 - - - 0;
#X obj 440 18 cnv 15 440 40 empty empty empty 20 12 0 14 #c4d05c #404040 0;
#X obj 474 353 tabosc4~ squarewave;
#X text 447 23 [bl_sawtooth]:vanilla abstraction which calculates partial amplitudes for a band limited squarewave \, using Pd's sinesum;
#X obj 444 127 bng 15 250 50 0 empty empty empty 17 7 0 10 #fcfcfc #000000 #000000;
#X obj 444 105 bl_squarewave squarewave 2048 40;
#X obj 443 61 loadbang;
#X obj 168 88 bng 16 250 50 0 empty empty empty 0 -8 0 10 #ff0400 #000000 #000000;
#X obj 77 39 bng 16 250 50 0 empty empty empty 0 -8 0 10 #00ff04 #000000 #000000;
#X obj 474 304 line 0 10;
#X floatatom 653 360 7 0 0 0 - - - 0;
#X floatatom 655 409 5 1 50 0 - - - 0;
#X obj 474 428 bp~ 500 10;
#X text 702 409 <-- Q (controls bandwidth);
#X text 710 360 <-- center frequency in hertz;
#X obj 656 333 hsl 169 18 200 2000 0 0 empty empty empty -2 -10 0 12 #dfdfdf #000000 #000000 0 1;
#X obj 658 382 hsl 169 18 1 20 0 0 empty empty empty -2 -10 0 12 #dfdfdf #000000 #000000 0 1;
#X text 96 11 1) Check if your device is available;
#X text 97 34 2)Open device with index number;
#X text 190 87 3) Close device;
#X text 123 213 4) Unpack here the list of numbers \, one f per number;
#X obj 37 214 unpack f f;
#X floatatom 45 244 5 0 0 0 - - - 0;
#X floatatom 146 246 5 0 0 0 - - - 0;
#X obj 19 304 vsl 16 136 0 1 0 0 empty empty empty 0 -9 0 10 #fcfcfc #000000 #000000 0 1;
#X obj 129 303 vsl 16 136 0 1 0 0 empty empty empty 0 -9 0 10 #fcfcfc #000000 #000000 0 1;
#X obj 36 265 s pitch;
#X obj 474 256 + 80;
#X text 559 169 remove negative;
#X obj 137 266 s amp;
#X obj 504 460 r amp;
#X msg 501 483 \$1 20;
#X obj 502 505 line~;
#X obj 475 525 *~;
#X msg 475 278 \$1 50;
#X text 747 445 to trigger something;
#X obj 473 236 * 100;
#X connect 0 0 5 0;
#X connect 1 0 5 0;
#X connect 2 0 5 0;
#X connect 4 0 3 0;
#X connect 4 0 38 0;
#X connect 4 1 3 1;
#X connect 5 0 4 0;
#X connect 6 0 2 0;
#X connect 7 0 14 0;
#X connect 8 0 9 0;
#X connect 9 0 10 0;
#X connect 9 0 11 0;
#X connect 12 0 53 0;
#X connect 14 0 8 0;
#X connect 16 0 22 0;
#X connect 17 0 19 0;
#X connect 19 0 29 0;
#X connect 22 0 21 0;
#X connect 23 0 16 0;
#X connect 24 0 0 0;
#X connect 25 0 6 0;
#X connect 26 0 17 0;
#X connect 27 0 29 1;
#X connect 28 0 29 2;
#X connect 29 0 50 0;
#X connect 32 0 27 0;
#X connect 33 0 28 0;
#X connect 38 0 39 0;
#X connect 38 0 41 0;
#X connect 38 0 43 0;
#X connect 38 1 40 0;
#X connect 38 1 42 0;
#X connect 38 1 46 0;
#X connect 44 0 51 0;
#X connect 47 0 48 0;
#X connect 48 0 49 0;
#X connect 49 0 50 1;
#X connect 50 0 13 0;
#X connect 50 0 13 1;
#X connect 51 0 26 0;
#X connect 53 0 44 0;
